<svg version="1.1" id="Layer_1" xmlns="http://www.w3.org/2000/svg" xmlns:xlink="http://www.w3.org/1999/xlink" x="0px" y="0px"
	 width="100%" viewBox="0 0 496 496" enable-background="new 0 0 496 496" xml:space="preserve">
<path fill="#000000" opacity="1.000000" stroke="none" 
	d="
M266.000000,497.000000 
	C177.333359,497.000000 89.166710,497.000000 1.000047,497.000000 
	C1.000031,331.666718 1.000031,166.333450 1.000016,1.000136 
	C166.333237,1.000091 331.666473,1.000091 496.999756,1.000045 
	C496.999847,166.333191 496.999847,331.666382 496.999939,496.999786 
	C420.166656,497.000000 343.333344,497.000000 266.000000,497.000000 
M320.877228,471.101685 
	C359.191711,459.269775 391.739899,438.216187 419.450195,409.437012 
	C426.018524,402.615265 431.711792,395.063416 437.342682,387.483429 
	C452.623779,366.912903 463.907074,344.265320 471.559784,319.852112 
	C479.511627,294.484680 482.760529,268.516968 481.761627,241.882690 
	C481.148224,225.528152 478.922668,209.504745 474.780487,193.765457 
	C468.663055,170.520798 459.621094,148.510147 446.712189,128.076614 
	C433.541016,107.227943 417.651611,88.783257 398.701416,73.153229 
	C379.120453,57.002937 357.502777,44.134464 333.552521,35.272511 
	C312.729706,27.567751 291.339539,21.918036 269.264069,20.659403 
	C248.752136,19.489916 228.201736,20.058706 207.729065,24.136726 
	C164.784897,32.690914 127.203384,51.514557 94.653099,80.528694 
	C80.065170,93.531837 67.768158,108.663918 57.254745,125.067841 
	C36.200050,157.919189 23.499018,193.907028 20.646133,232.836990 
	C19.179844,252.845764 19.531126,273.081238 23.654972,292.931122 
	C34.417072,344.733917 58.257072,389.097198 98.371155,424.271912 
	C116.363556,440.048767 136.079132,452.954102 158.002640,462.595062 
	C188.203400,475.875946 219.859909,482.298370 252.714188,482.405151 
	C260.403809,482.430145 268.242920,481.562805 276.004242,480.828156 
	C291.133789,479.396027 305.688263,475.703094 320.877228,471.101685 
z"/>
<path fill="#000000" opacity="1.000000" stroke="none" 
	d="
M123.757530,172.668274 
	C141.386963,164.891769 159.185608,159.064423 178.017502,156.709427 
	C209.475662,152.775452 237.202682,161.743240 262.084290,180.786255 
	C275.599274,191.129852 287.696014,203.117538 300.785675,213.948807 
	C308.266724,220.139099 316.186920,225.532745 325.919617,227.741470 
	C337.851898,230.449432 347.814636,225.667526 357.377258,219.635498 
	C366.182831,214.081039 373.385254,206.627533 380.338959,198.967148 
	C382.125641,196.998901 383.772980,195.916443 386.274689,197.799713 
	C400.512817,208.518112 414.781769,219.195496 429.024536,229.907776 
	C429.536285,230.292664 429.883484,230.896347 430.441040,231.556274 
	C430.049774,232.295517 429.831055,233.162582 429.282440,233.679764 
	C410.563507,251.326141 391.213013,268.178955 367.360229,278.690948 
	C344.794250,288.635864 329.552155,285.236389 313.371765,266.780365 
	C305.910950,258.270233 299.175323,249.125107 291.730804,240.599792 
	C282.542572,230.077576 271.326630,223.055817 256.873352,222.421539 
	C244.525330,221.879654 233.216248,225.788361 222.248734,230.778854 
	C202.249084,239.879166 184.447723,252.482101 167.241287,265.978760 
	C163.703140,268.754089 160.123459,271.496918 156.790100,274.506409 
	C154.124161,276.913330 151.969727,276.537262 149.358231,274.443604 
	C125.965279,255.689255 102.515732,237.005508 79.085175,218.298065 
	C75.571075,215.492340 72.132866,212.586807 68.542915,209.882248 
	C65.183830,207.351624 65.375511,205.421768 68.898972,203.153427 
	C86.422409,191.872131 104.201393,181.066757 123.757530,172.668274 
M83.488503,202.824799 
	C87.589401,200.086731 92.448036,198.382446 95.371223,193.996185 
	C88.919472,196.429337 82.891045,199.484329 77.156349,204.885468 
	C80.313522,205.296997 81.400650,203.779282 83.488503,202.824799 
M171.006348,248.939651 
	C169.171188,250.320999 166.595413,251.091888 166.517914,254.055191 
	C168.980698,255.557770 170.845505,254.556015 172.398911,253.006287 
	C174.062866,251.346252 175.317719,249.477234 171.006348,248.939651 
M158.869461,260.685822 
	C154.740219,259.272614 154.021530,261.945709 153.145157,265.338074 
	C156.580627,265.332214 158.713730,264.494781 158.869461,260.685822 
M188.569260,239.357239 
	C186.290741,237.424149 185.011688,238.963943 183.976257,240.792007 
	C183.418350,241.776978 183.791748,242.982178 184.929413,243.094498 
	C187.123367,243.311111 188.774765,242.469101 188.569260,239.357239 
z"/>
<path fill="#000000" opacity="1.000000" stroke="none" 
	d="
M356.622284,319.256195 
	C355.895233,316.808624 355.196106,314.761902 354.673737,312.670990 
	C354.390137,311.535858 354.317932,310.241669 355.905640,309.887390 
	C357.252533,309.586853 358.018677,310.326721 358.648438,311.476410 
	C359.948395,313.849548 359.520386,317.085022 362.255157,318.988068 
	C364.893341,317.479736 364.649994,314.658905 365.591278,312.508942 
	C366.233276,311.042572 366.805847,309.744659 368.685089,309.855469 
	C370.329498,309.952454 370.735260,311.253296 371.294403,312.486420 
	C372.353149,314.821167 372.052856,317.763184 374.453827,319.811951 
	C377.099457,317.831726 377.003235,314.795227 377.953033,312.266815 
	C378.510010,310.784180 379.279633,309.370605 381.168640,309.974304 
	C382.990295,310.556458 382.383850,312.125793 382.015350,313.335846 
	C380.563995,318.101715 379.028046,322.842010 377.499573,327.584076 
	C377.078461,328.890625 376.479889,330.069489 374.850342,330.169220 
	C372.985779,330.283325 372.323578,329.052673 371.688202,327.576538 
	C370.742371,325.379089 370.871979,322.615326 368.372711,320.978943 
	C365.847931,322.477234 366.109406,325.289154 365.153015,327.454498 
	C364.533936,328.856262 364.006042,330.254730 362.081665,330.187775 
	C360.431122,330.130371 359.809143,328.974060 359.366577,327.683502 
	C358.451050,325.013733 357.600922,322.321564 356.622284,319.256195 
z"/>
<path fill="#000000" opacity="1.000000" stroke="none" 
	d="
M143.175415,321.917542 
	C142.625015,324.952118 144.615509,329.190979 141.182678,329.713043 
	C137.144150,330.327209 140.300873,324.780212 137.582458,323.318298 
	C134.651962,323.603699 135.451065,328.607147 132.046616,328.008972 
	C129.300171,327.526428 130.011368,323.577271 127.460541,322.556030 
	C125.517456,323.939819 126.498299,325.972290 126.111671,327.635986 
	C125.836426,328.820465 125.568672,329.960571 124.059334,329.981659 
	C122.858345,329.998474 122.180038,329.167419 122.084846,328.133453 
	C121.582664,322.678131 121.615471,317.212097 122.100227,311.756683 
	C122.196243,310.676117 122.957863,310.005768 124.085541,309.856171 
	C125.555092,309.661224 126.557968,310.225708 127.404793,311.482697 
	C129.143875,314.064087 129.592590,317.394836 132.205368,319.755249 
	C135.081635,318.325958 135.323029,315.221100 136.682175,312.918640 
	C137.730301,311.143036 138.653778,309.247375 141.166901,309.934814 
	C143.521042,310.578766 143.151840,312.735748 143.226181,314.475647 
	C143.325150,316.792175 143.200760,319.118225 143.175415,321.917542 
z"/>
<path fill="#000000" opacity="1.000000" stroke="none" 
	d="
M150.364105,320.820129 
	C150.371979,315.470398 152.271637,311.588440 157.253906,310.116730 
	C161.481125,308.868134 165.546753,309.493073 168.593323,313.091034 
	C171.560333,316.595093 172.131760,320.543030 170.047180,324.674835 
	C167.736816,329.254211 163.784241,331.004089 158.876953,330.232788 
	C153.851913,329.442932 151.056030,326.246582 150.364105,320.820129 
M163.809036,325.235382 
	C166.823318,322.578918 167.852219,319.512665 165.148239,316.139801 
	C163.212601,313.725372 160.597504,312.619720 157.743866,314.635590 
	C155.114548,316.492981 153.542725,319.068451 155.175552,322.312012 
	C156.821426,325.581543 159.281982,327.543518 163.809036,325.235382 
z"/>
<path fill="#000000" opacity="1.000000" stroke="none" 
	d="
M260.353699,327.794891 
	C257.616150,323.853119 255.435623,323.116943 253.935974,328.239075 
	C253.562958,329.513123 252.732742,330.262451 251.348511,329.973663 
	C250.173370,329.728516 249.810486,328.711090 249.802094,327.691528 
	C249.759674,322.532684 249.761673,317.372986 249.821060,312.214417 
	C249.827957,311.614746 250.152344,310.620667 250.556198,310.485199 
	C254.592804,309.131378 258.778320,308.806519 262.590088,310.844788 
	C265.983582,312.659393 266.870514,316.116577 265.486206,319.486938 
	C264.092651,322.879852 262.992645,325.971954 265.821228,329.126312 
	C263.112030,331.089844 261.742554,329.940552 260.353699,327.794891 
M258.802887,313.704681 
	C256.567871,313.209167 254.829788,313.696289 254.423569,316.234192 
	C254.153030,317.924347 254.349487,319.604767 256.291077,320.285583 
	C258.052063,320.903076 259.564972,320.214325 260.645386,318.846436 
	C262.256134,316.807098 261.416656,315.222046 258.802887,313.704681 
z"/>
<path fill="#000000" opacity="1.000000" stroke="none" 
	d="
M288.520691,328.198212 
	C286.478760,330.258270 277.415741,331.150177 275.620789,329.843781 
	C275.247192,329.571869 274.811798,329.133392 274.751251,328.720795 
	C273.904572,322.951416 273.705872,317.165680 274.683289,311.392944 
	C274.922668,309.979279 276.168243,309.726257 277.376526,309.710022 
	C280.197479,309.672089 283.019775,309.652740 285.840302,309.698456 
	C287.029114,309.717712 288.276215,309.909454 288.229095,311.538025 
	C288.183105,313.128357 286.950775,313.253448 285.754272,313.344940 
	C284.269135,313.458466 282.764954,313.453552 281.302917,313.700531 
	C279.928345,313.932739 278.700165,314.587280 278.863647,316.293640 
	C278.998352,317.699951 280.159821,318.169403 281.320618,318.390808 
	C282.453400,318.606842 283.630066,318.583130 284.783234,318.704681 
	C285.777466,318.809509 286.847839,318.912781 287.013397,320.200378 
	C287.211731,321.743530 286.146362,322.125305 284.917084,322.399750 
	C283.213531,322.779999 281.197815,322.432892 279.946472,324.483551 
	C281.658173,328.448090 286.316406,325.054657 288.520691,328.198212 
z"/>
<path fill="#000000" opacity="1.000000" stroke="none" 
	d="
M220.135925,309.632233 
	C222.759415,309.653717 224.918839,309.650757 227.075928,309.720276 
	C228.114426,309.753754 229.079315,310.034302 229.181747,311.330658 
	C229.309540,312.947571 228.205002,313.255066 226.955902,313.320251 
	C225.463776,313.398163 223.964523,313.363708 222.475876,313.476868 
	C221.030640,313.586731 219.803162,314.251312 219.679352,315.804291 
	C219.527008,317.715332 220.966263,318.170776 222.534714,318.583588 
	C224.501770,319.101318 228.211304,317.250458 228.035187,320.713867 
	C227.864655,324.067657 224.272766,321.921692 222.255722,322.418854 
	C221.063705,322.712677 219.883301,322.912781 219.752167,324.365143 
	C219.575485,326.321747 221.101288,326.343445 222.430313,326.502228 
	C222.923416,326.561096 223.450241,326.454742 223.918793,326.581879 
	C225.902939,327.120209 229.545914,325.288666 229.446838,328.708557 
	C229.367676,331.440552 225.943954,330.110321 223.975723,330.360138 
	C222.505463,330.546814 220.984329,330.292023 219.497421,330.397186 
	C216.553284,330.605499 215.171097,329.254059 215.161438,326.361725 
	C215.147568,322.210602 215.153046,318.059113 215.101334,313.908417 
	C215.062286,310.773438 216.498627,309.296936 220.135925,309.632233 
z"/>
<path fill="#000000" opacity="1.000000" stroke="none" 
	d="
M339.019897,309.633698 
	C341.490601,309.668640 343.486908,309.666534 345.478424,309.763123 
	C346.556946,309.815491 347.450745,310.307800 347.438660,311.547058 
	C347.426392,312.805450 346.485291,313.158813 345.420441,313.285278 
	C345.255493,313.304901 345.087280,313.303223 344.924377,313.332581 
	C342.641937,313.743866 338.970398,312.403992 338.723175,315.759857 
	C338.456970,319.373627 342.217255,318.280548 344.465912,318.718170 
	C345.537842,318.926758 346.417999,319.300446 346.410156,320.542358 
	C346.402222,321.800873 345.460632,322.141876 344.418427,322.348999 
	C342.564789,322.717407 340.340881,322.039642 338.919128,324.385315 
	C340.133209,327.093506 342.717773,326.327362 344.839691,326.634827 
	C346.121643,326.820526 347.794495,326.635437 347.827087,328.486237 
	C347.860535,330.387146 346.165436,330.196960 344.889954,330.351227 
	C334.262634,331.636322 333.628662,331.074738 333.626923,320.411407 
	C333.626617,318.415527 333.785919,316.405792 333.605316,314.426758 
	C333.263275,310.678833 334.951721,309.227631 339.019897,309.633698 
z"/>
<path fill="#000000" opacity="1.000000" stroke="none" 
	d="
M191.034149,310.897797 
	C192.253067,309.759766 193.299454,309.545929 195.092346,310.769318 
	C193.420822,316.873047 191.051041,323.001404 188.117844,328.837341 
	C186.859802,331.340302 184.204300,330.892426 183.102814,328.361206 
	C180.600571,322.610962 178.078735,316.832367 176.547607,310.655823 
	C180.450684,308.479492 181.000809,311.437134 181.982040,313.583313 
	C182.989456,315.786682 183.193100,318.455872 185.781311,319.982300 
	C189.297241,318.093536 188.990234,314.016418 191.034149,310.897797 
z"/>
<path fill="#000000" opacity="1.000000" stroke="none" 
	d="
M295.634033,314.075562 
	C295.109589,312.339355 293.949524,310.734467 296.147308,309.969788 
	C297.893280,309.362274 298.758972,310.489716 299.551758,312.006927 
	C300.962982,314.707764 300.851593,318.232513 303.754822,320.266998 
	C308.749634,318.625519 305.938965,310.246521 313.334473,309.811401 
	C311.860901,316.961639 309.357635,323.061310 306.290955,328.821259 
	C304.754578,331.706970 302.253754,330.636597 301.083344,327.908936 
	C299.182800,323.479584 297.527069,318.945221 295.634033,314.075562 
z"/>
<path fill="#000000" opacity="1.000000" stroke="none" 
	d="
M206.439941,314.094940 
	C206.406113,318.343842 206.455597,322.172913 206.313126,325.994812 
	C206.257050,327.499054 206.906479,329.792908 204.466095,329.928772 
	C202.062653,330.062592 202.242538,327.798248 202.188904,326.251556 
	C202.044800,322.097321 202.041901,317.934967 202.114044,313.778076 
	C202.141739,312.182526 202.003311,310.048920 204.318283,309.973785 
	C206.867706,309.890991 206.210632,312.148865 206.439941,314.094940 
z"/>
<path fill="#000000" opacity="1.000000" stroke="none" 
	d="
M324.547455,325.116821 
	C324.144928,327.113159 325.197418,329.860779 322.643219,329.852966 
	C319.642670,329.843842 320.762329,326.926697 320.687775,325.219299 
	C320.508148,321.103973 320.595886,316.974670 320.660278,312.852325 
	C320.680481,311.558105 320.735291,310.036774 322.620880,310.033051 
	C324.479584,310.029358 324.665100,311.588226 324.682434,312.846222 
	C324.736908,316.799286 324.607117,320.754852 324.547455,325.116821 
z"/>
</svg>